<svg xmlns="http://www.w3.org/2000/svg" width="48" height="46.893" viewBox="0 0 48 46.893"><defs><style>.a{opacity:0.4;}.b{opacity:0;}</style></defs><g class="a"><g transform="translate(0 0)"><rect class="b" width="46.893" height="48" transform="translate(48) rotate(90)"/><path d="M13.071,4A2,2,0,0,0,11,5.932V34.9a2,2,0,0,0,2.071,1.932A2,2,0,0,0,15.142,34.9V5.932A2,2,0,0,0,13.071,4Z" transform="translate(11.781 4.344)"/><path d="M20.071,12A2,2,0,0,0,18,13.932V27.452a2.076,2.076,0,0,0,4.142,0V13.932A2,2,0,0,0,20.071,12Z" transform="translate(19.278 11.796)"/><path d="M6.071,8A2,2,0,0,0,4,9.932V31.179A2,2,0,0,0,6.071,33.11a2,2,0,0,0,2.071-1.932V9.932A2,2,0,0,0,6.071,8Z" transform="translate(4.284 8.07)"/></g></g></svg>