<svg xmlns="http://www.w3.org/2000/svg" width="48" height="46.893" viewBox="0 0 48 46.893"><defs><style>.a{opacity:0.4;}.b{opacity:0;}</style></defs><g class="a"><g transform="translate(0 0)"><rect class="b" width="48" height="46.893"/><path d="M38.449,7.95A22.829,22.829,0,0,0,22.647,2C11.209,1.974,1.914,10.6,1.885,21.268s9.22,19.337,20.658,19.364a5.307,5.307,0,0,0,5.24-3.651,4.634,4.634,0,0,0-1.18-4.4.915.915,0,0,1-.168-1.031,1.041,1.041,0,0,1,.934-.572h3.417c6.672.029,12.237-4.748,12.757-10.952A15.8,15.8,0,0,0,38.449,7.95Zm-7.58,19.161H27.452a5.19,5.19,0,0,0-4.731,2.834,4.561,4.561,0,0,0,.858,5.182.9.9,0,0,1,.249.946c-.1.406-.58.657-1.222.7a17.077,17.077,0,0,1-12.359-5.386A14.747,14.747,0,0,1,6.41,19.173C7.63,11.635,14.5,6.014,22.668,5.864h.166a18.218,18.218,0,0,1,12.633,4.79A12.121,12.121,0,0,1,39.4,19.868,8.43,8.43,0,0,1,30.869,27.111Z" transform="translate(2.019 2.584)"/><ellipse cx="3.294" cy="3.072" rx="3.294" ry="3.072" transform="translate(22.588 9.874)"/><path d="M16.053,7.387a2.794,2.794,0,0,0-1.137,3.957,3.232,3.232,0,0,0,4.242,1.062A2.794,2.794,0,0,0,20.3,8.45,3.087,3.087,0,0,0,18.412,7.1a3.3,3.3,0,0,0-2.359.29Z" transform="translate(15.53 7.242)"/><path d="M11.159,7.387A3.232,3.232,0,0,0,6.917,8.45a2.794,2.794,0,0,0,1.138,3.957,3.232,3.232,0,0,0,4.243-1.06,2.727,2.727,0,0,0,.31-2.2A2.934,2.934,0,0,0,11.159,7.387Z" transform="translate(6.962 7.243)"/><path d="M6.868,11.5a2.813,2.813,0,0,0-1.3,2.982,3.012,3.012,0,0,0,2.457,2.264A3.207,3.207,0,0,0,11.2,15.5a2.736,2.736,0,0,0-.026-3.221,3.106,3.106,0,0,0-1.981-1.225,3.266,3.266,0,0,0-2.327.452Z" transform="translate(5.89 10.969)"/></g></g></svg>